# xmcd
#
# Track frame offsets:
#	150
#	8245
#	27917
#	48049
#	69211
#	90409
#	107996
#	131857
#	155073
#	179158
#	207625
#	208660
#
# Disc length: 3063 seconds
#
# Revision: 1
# Processed by: cddbd v1.5.1PL0 Copyright (c) Steve Scherf et al.
# Submitted via: EasyCDDAExtractor 7.0.6.1
#
DISCID=ab0bf50c
DTITLE=关悦 - 爱情札志
DYEAR=2004
DGENRE=Blues
TTITLE0=序曲（下雨了）
TTITLE1=现在的你快乐吗
TTITLE2=礼物
TTITLE3=结果呢
TTITLE4=那夜
TTITLE5=好过一点
TTITLE6=红线
TTITLE7=灰雨
TTITLE8=我还是属于你
TTITLE9=等雨停
TTITLE10=关悦
TTITLE11=情难枕
EXTD=
EXTT0=
EXTT1=
EXTT2=
EXTT3=
EXTT4=
EXTT5=
EXTT6=
EXTT7=
EXTT8=
EXTT9=
EXTT10=
EXTT11=
PLAYORDER=
